/* XPM */
static char *_79973afdc8d4777904d8353fcf2b9fau4bHEu3Qbgd7Chjs[] = {
/* columns rows colors chars-per-pixel */
"64 64 190 2 ",
"   c #000000",
".  c #080705",
"X  c #0B0B0B",
"o  c #110D0B",
"O  c #0F0F10",
"+  c #121213",
"@  c #1A1918",
"#  c #211615",
"$  c #231B15",
"%  c #37271D",
"&  c #222122",
"*  c #292A2A",
"=  c #3B2C23",
"-  c #3F3223",
";  c #2F3032",
":  c #323334",
">  c #3A3B3F",
",  c #432F25",
"<  c #453026",
"1  c #53392C",
"2  c #5A3E30",
"3  c #6A4A38",
"4  c #6E533A",
"5  c #3F4042",
"6  c #424245",
"7  c #464649",
"8  c #494A4D",
"9  c #545659",
"0  c #57595C",
"q  c #5A5C5F",
"w  c #5C5D60",
"e  c #606166",
"r  c #63656B",
"t  c #696A6E",
"y  c #6D6E71",
"u  c #6F7176",
"i  c #74767B",
"p  c #787A7E",
"a  c #DF3361",
"s  c #DE3D6A",
"d  c #E03261",
"f  c #E63C65",
"g  c #E83F67",
"h  c #E33E68",
"j  c #93624B",
"k  c #AA6256",
"l  c #A9665B",
"z  c #B16B57",
"x  c #B36D58",
"c  c #A77155",
"v  c #B17757",
"b  c #B67359",
"n  c #BA7559",
"m  c #BF7D59",
"M  c #AD6E64",
"N  c #B87A66",
"B  c #C07D5A",
"V  c #DD426D",
"C  c #DC4771",
"Z  c #DD4973",
"A  c #DC547B",
"S  c #E7426A",
"D  c #EF496C",
"F  c #F24C6E",
"G  c #F4516F",
"H  c #E44D74",
"J  c #EC5A77",
"K  c #F45170",
"L  c #F25D7A",
"P  c #EE617E",
"I  c #F3617D",
"U  c #B58D57",
"Y  c #B7837C",
"T  c #C5845B",
"R  c #CA8D5C",
"E  c #C5985C",
"W  c #D0945E",
"Q  c #D49B5F",
"!  c #DBA65F",
"~  c #C3936E",
"^  c #D49C60",
"/  c #D09E6E",
"(  c #D6A360",
")  c #DBA661",
"_  c #D0A66F",
"`  c #D7A96D",
"'  c #DAAA6B",
"]  c #DBB27C",
"[  c #7B7C82",
"{  c #7D7F8A",
"}  c #DB5D83",
"|  c #E05A81",
" . c #D96187",
".. c #D7658A",
"X. c #D96389",
"o. c #D7698E",
"O. c #DB698D",
"+. c #D86D90",
"@. c #D77797",
"#. c #DA7395",
"$. c #DB7C9C",
"%. c #ED6986",
"&. c #F46480",
"*. c #F4748D",
"=. c #E67692",
"-. c #E67A96",
";. c #F67991",
":. c #7F8285",
">. c #83858D",
",. c #898B8F",
"<. c #8A8C93",
"1. c #91949A",
"2. c #AF8181",
"3. c #BB9292",
"4. c #9699A2",
"5. c #9A9EA8",
"6. c #9FA2AA",
"7. c #A2A3AA",
"8. c #ADB0B9",
"9. c #B2B5BE",
"0. c #E9859D",
"q. c #F4839A",
"w. c #C0A682",
"e. c #D5B38A",
"r. c #D9B588",
"t. c #C7A59C",
"y. c #DABC95",
"u. c #D2B99D",
"i. c #DA88A7",
"p. c #DA99B5",
"a. c #DA9CB6",
"s. c #E187A5",
"d. c #E28AA5",
"f. c #EC8DA3",
"g. c #F78CA2",
"h. c #EC94A8",
"j. c #ED99AD",
"k. c #F996AA",
"l. c #F99BAD",
"z. c #EA9DB0",
"x. c #C5ABA9",
"c. c #D2BAA3",
"v. c #DAA5BD",
"b. c #C7B5B5",
"n. c #EAA4B6",
"m. c #E7A5B8",
"M. c #D8C7B6",
"N. c #E0D0BB",
"B. c #BABDC5",
"V. c #CBBCC5",
"C. c #DCB8CC",
"Z. c #E5ADC1",
"A. c #E6B6C8",
"S. c #BDC0C6",
"D. c #C1C3CB",
"F. c #CAC1C8",
"G. c #D3C9C5",
"H. c #CACCD6",
"J. c #C7CAD8",
"K. c #DCC3D5",
"L. c #DCC7DA",
"P. c #DDCBDC",
"I. c #CED1DE",
"U. c #D2D3DE",
"Y. c #DCD5DA",
"T. c #E7C0CF",
"R. c #E8C4D2",
"E. c #EECED8",
"W. c #C9CEE2",
"Q. c #CDD1E4",
"!. c #D1D5E5",
"~. c #DDD4E3",
"^. c #D5D9E4",
"/. c #D7DBE9",
"(. c #D8D8E8",
"). c #DBDFEB",
"_. c #E4D8E4",
"`. c #DEE2ED",
"'. c #E3E3E4",
"]. c #E3E6EE",
"[. c #E3E8EF",
"{. c #F7E6EA",
"}. c #E3E7F0",
"|. c #E3E8F0",
" X c #E4E9F1",
".X c #EBEEF5",
"XX c #EEF1F6",
"oX c #EFF2F8",
"OX c #F4F5FA",
"+X c #F7F8FC",
/* pixels */
"                                                                                                                                ",
"                                                                                                                                ",
"                                                                                                                                ",
"                                                          # , 1 1 < $                                                           ",
"                                                    . 2 c m m m m m B v 3 X                                                     ",
"                                                    j m m m n x x b m m B c o                                                   ",
"                                                  % m m m b k b b l z m m m 1                                                   ",
"                                                  # B m m m ^ ) ) ^ m m m B ,                                                   ",
"                                                  . l m m m m m m m m m m z #                                                   ",
"                                                  O l k z b n m m n b z k l &                                                   ",
"                                                X B.3.k k k k k k k k k k N U.@                                                 ",
"                                                0 [.3.k k k k k k k k k k 2.}.p                                                 ",
"                                                [ [.V.l k k k k k k k k k x.[.5.                                                ",
"                                                >./.}.Y.x.Y M l l M Y t.Y.|.`.5.                                                ",
"                                                { W.!.`.}.}.}.].].}.}.|.`.!.W.4.                                                ",
"                                                r W.W.W.Q.!.^./././.!.Q.W.W.W.{                                                 ",
"                                                & J.W.W.W.W.W.W.W.W.W.W.W.W.W.>                                                 ",
"                                                  6 J.W.W.W.W.W.W.W.W.W.W.I.e                                                   ",
"                                                $ U ] /.!.W.W.W.W.W.W.Q./.y.E -                                                 ",
"                                              . E ) ] [.[.}.[.`.`.`.}.|.}.y.) ( $                                               ",
"                                              - ) ! _ }.}.}.}.}.}.}.}.}.}.w.! ! 4                                               ",
"                                              = R ) _ M.^./.`.}.[.`.`.^.G./ ! W 3                                               ",
"                                              . c T ^ ) ` r.u.c.c.u.e.` ) ^ R m $                                               ",
"                                                @ c m T R W Q Q Q Q W R T m v %                                                 ",
"                                                @ 9.x.~ N m m B m m m m T x.D.*                                                 ",
"                                            . t ^.}.`./.U.F.b.x.t./ ^ ) ) M.[.`.p X                                             ",
"                                          : D.[.}.}.|. X X|.}.}.`.!.u.) ) ' '.}.}.H.6                                           ",
"                                        t [.}. X.XOX+X+X+XXX}.}.}.}./.e.! ) M.}.}.}.[.:.                                        ",
"                                      ,.}.[..X+X+X+X+X+X+X+X}.}.}.}.}.G.) ) ' N.'.].}.[.7.X                                     ",
"                                    ,.}. XOX+X+X+X+X+X+X+XXX}.}.}.}.}./.e.! ) ) ' ' y.].}.7..                                   ",
"                                  t |. XOX+X+X+X+X+X+X+XXX[.}.}.}.}.}.[.U.r.) ) ) ! ) '.}.`.>.                                  ",
"                                : `.[.OX+X+X+X+X+X+X+XXX[.}.}.}.}.}.}.}.}.^.M.e.` ` y.].}.`./.8                                 ",
"                              . S.|.XX+X+X+X+X+X+X+X.X}.}.}.}.}.}.}.}.}.}.}.[./.^.^.`.}.}.`./.H.X                               ",
"                              q }. X+X+X+X+X+X+X+X X}.}.}.}.}.}.}.}.}.}.}.}.}.}.}.}.}.}.}./././.p                               ",
"                            . H.[..X+X+X+X+X+XoX X}.}.}.}.}.}.}.}.}.}.}.}.}.}.}.}.}.}.}.}./././.!.+                             ",
"                            7 }.[.oX+X+X+X+X.X}.}.}.}.}.}.}.}.}.}.}.}.}.}.}.}.}.}.}.}.}.[./././.`.e                             ",
"                            1.}.}.XX+X+XOX X[.}.}.}.}.}.}.}.}.}.}.}.}.}.}.}.}.}.}.}.}.}.`.`.`.`./.8.                            ",
"                            U.}.}.}..X X}.].}.]._.R.A.n.j.h.f.0.0.f.f.j.n.Z.T._.].}.}.}.`.`.`.`././.O                           ",
"                          &  X}.}.}.|.].R.z.;.L K K G K K K K K K K K K K G G K J *.h.A.(./.`.`././.5                           ",
"                          7 }.}.|._.j.P K K L l.g.&.K K K K K K K K K K K K K g.l.I K %.-.m.P.`.)./.r                           ",
"                          q }.}.R.L K K K G q.l.k.g.K K K K K K K K K K K K K *.;.L L =.=.=.-.A.)./.[                           ",
"                          y [.].&.K K K K K I *.*.I K K K K K K K K K K K G K K K K f.=.=.=.=.-.~.).<.                          ",
"                          y [.].H K K K K K K K K K K K K K K K K K K K K G L q.*.j.0.=.=.=.=.=.L.).<.                          ",
"                          w }.}.C D K K K K K K K K K K K K K K ;.k.*.K K K K L E.{.d.=.=.=.=.X.~.`.[                           ",
"                          7 }.|.| a f D K K K K K K K K K K K K ;.q.*.K K K K P m.n.n.0.=.O. ...)./.r                           ",
"                          & }.}.-.d d a d f S D F K K K K K K K K K K K G K P 0.0.=.O.O. . . .$./.).6                           ",
"                            H.`.Z.a d a d a a a a d d f f f g g S g f f h A X... .X. . . . . .a././.+                           ",
"                            <./._.V a S a a d a a d a a a a a d a d a C }  . . . . . . . . . .K./.8.                            ",
"                            6 /./.i.A V a d a d H H d a a a a a s Z #.$. . . . . .X. . . . .@.)./.t                             ",
"                            . D./.L.X. . .X.A C V s s V V Z  .}  . ...O. . . . .$.d.O. . . .C.).^.+                             ",
"                              q )./.p. .O.d.#. . . . . . . .X. . . . . . . . . .$.d.O. . .i.)./.>.                              ",
"                              . B./.~.#. .O.X. . .X.$.s... . . . . . . . . . . .X.X. . .o.P./.U.@                               ",
"                                : /./.L.o. . . . . .s.d.O. . . . . . . . . . . . . . ...C.)./.w                                 ",
"                                  y )./.K.O. .X. . ...O. . . . . . . .O.#. . . . . ...C./.).4.                                  ",
"                                    1.)./.P.$. . . . . . . . . . . . ...O. . . . .#.K././.9.X                                   ",
"                                    . 4.)./.).v.O. . . . . . . . . . . . . . ...a.(.)./.9.+                                     ",
"                                      . [ /././.~.v.#. . . . . . . . . . .+.a.~./././.1.X                                       ",
"                                          7 J./././.).K.v.i.$.#.#.$.i.a.K.).)././.I.9                                           ",
"                                            X i U.`./.`./.).)./.).)./././././.U.p +                                             ",
"                                                X q 7.^.).)./././././.).^.6.0 X                                                 ",
"                                                      X : 9 i [ p u 9 ; .                                                       ",
"                                                                                                                                ",
"                                                                                                                                ",
"                                                                                                                                "
};
