/* XPM */
static char *ad673895d14543f39530d67f3659d65ebt4SpyRWLphjK6OS[] = {
/* columns rows colors chars-per-pixel */
"64 64 246 2 ",
"   c #010003",
".  c #03020C",
"X  c #08070F",
"o  c #09090D",
"O  c #060213",
"+  c #090415",
"@  c #0C0B14",
"#  c #07011A",
"$  c #0A041C",
"%  c #0D0B1A",
"&  c #110D1C",
"*  c #13111C",
"=  c #0C0423",
"-  c #0D0725",
";  c #0E042A",
":  c #110625",
">  c #110C25",
",  c #11052C",
"<  c #130A2C",
"1  c #17112A",
"2  c #19112E",
"3  c #0E0332",
"4  c #0F043A",
"5  c #130533",
"6  c #140934",
"7  c #150935",
"8  c #190836",
"9  c #15053B",
"0  c #19053C",
"q  c #16093B",
"w  c #190A3D",
"e  c #1A1232",
"r  c #1D123A",
"t  c #21163E",
"y  c #140543",
"u  c #190643",
"i  c #160941",
"p  c #1B0B44",
"a  c #16054A",
"s  c #1B064B",
"d  c #1D0B4B",
"f  c #1F1242",
"g  c #1C0653",
"h  c #1E0B53",
"j  c #1D055B",
"k  c #1D0859",
"l  c #230B49",
"z  c #210C4D",
"x  c #231245",
"c  c #25124C",
"v  c #220655",
"b  c #220D54",
"n  c #22065B",
"m  c #240C5B",
"M  c #290C5B",
"N  c #330D5D",
"B  c #241254",
"V  c #2C1657",
"C  c #25115A",
"Z  c #2A125D",
"A  c #1B0465",
"S  c #230664",
"D  c #250C63",
"F  c #2A0D64",
"G  c #260668",
"H  c #260C6A",
"J  c #2C0D6B",
"K  c #340D64",
"L  c #320D6C",
"P  c #3B0D6C",
"I  c #261163",
"U  c #2A1265",
"Y  c #2D1B65",
"T  c #2C126B",
"R  c #341768",
"E  c #32126D",
"W  c #260775",
"Q  c #2B0C72",
"!  c #2E0D7B",
"~  c #310D74",
"^  c #330E7B",
"/  c #2E1373",
"(  c #2F137B",
")  c #321374",
"_  c #3A1173",
"`  c #341B74",
"'  c #33147B",
"]  c #3A137D",
"[  c #351B7B",
"{  c #3B1E78",
"}  c #37207B",
"|  c #420D78",
" . c #44137F",
".. c #2B0887",
"X. c #340C87",
"o. c #351483",
"O. c #3B1383",
"+. c #361984",
"@. c #3D1C84",
"#. c #36138B",
"$. c #3C158C",
"%. c #37198A",
"&. c #3C1A8C",
"*. c #360C99",
"=. c #3C1493",
"-. c #3D1B94",
";. c #3B159A",
":. c #3E1B9A",
">. c #3C2287",
",. c #3F2192",
"<. c #380DAC",
"1. c #4A0F8E",
"2. c #411584",
"3. c #4C1587",
"4. c #43158C",
"5. c #411B8C",
"6. c #441593",
"7. c #4A1797",
"8. c #431A94",
"9. c #45159A",
"0. c #421B9C",
"q. c #4B199C",
"w. c #571696",
"e. c #52199C",
"r. c #601299",
"t. c #43228F",
"y. c #462399",
"u. c #440FA5",
"i. c #4B16A2",
"p. c #441DA2",
"a. c #4B1BA3",
"s. c #4715A8",
"d. c #461CA9",
"f. c #4C1CAB",
"g. c #5717A7",
"h. c #511AA2",
"j. c #531BAC",
"k. c #5C1CAC",
"l. c #470EB9",
"z. c #4A15B5",
"x. c #4C1CB3",
"c. c #5415B6",
"v. c #531CB3",
"b. c #5B1CB3",
"n. c #551CBA",
"m. c #5C1DBA",
"M. c #631DAF",
"N. c #661DB9",
"B. c #4825A5",
"V. c #4B24A5",
"C. c #4B21AD",
"Z. c #5522A8",
"A. c #5224AE",
"S. c #4D22B4",
"D. c #4F25BA",
"F. c #5221B4",
"G. c #5829B7",
"H. c #5323BB",
"J. c #5A22BD",
"K. c #5B2BBC",
"L. c #6B20BD",
"P. c #4D17C6",
"I. c #5B1DC3",
"U. c #561AC8",
"Y. c #631DC3",
"T. c #641DCB",
"R. c #6C1DC8",
"E. c #761FCD",
"W. c #681CD4",
"Q. c #5624C3",
"!. c #5B25C3",
"~. c #5A2AC2",
"^. c #5E25CA",
"/. c #5D29CD",
"(. c #6322C4",
"). c #6B21C3",
"_. c #642CC4",
"`. c #6324CB",
"'. c #6B23CD",
"]. c #652BCC",
"[. c #7623CA",
"{. c #6524D7",
"}. c #6B23D3",
"|. c #632AD3",
" X c #6B29D6",
".X c #6C24DA",
"XX c #6C2CDC",
"oX c #7224D3",
"OX c #7A27D7",
"+X c #7525DD",
"@X c #7A25DB",
"#X c #722ADB",
"$X c #6E31D8",
"%X c #6E26E5",
"&X c #7927E6",
"*X c #732CE3",
"=X c #7E31EA",
"-X c #861BBE",
";X c #8824D8",
":X c #902CD6",
">X c #A836DB",
",X c #8225E3",
"<X c #8729E5",
"1X c #852CED",
"2X c #8B2BED",
"3X c #9527E9",
"4X c #8732E6",
"5X c #9837E8",
"6X c #852BF2",
"7X c #8A2DF3",
"8X c #952CF3",
"9X c #992CF5",
"0X c #992DF7",
"qX c #8C31F3",
"wX c #9432F5",
"eX c #9935F4",
"rX c #9B32F9",
"tX c #A536EE",
"yX c #B33BE8",
"uX c #A52CF5",
"iX c #A233F5",
"pX c #A334FB",
"aX c #AB38F9",
"sX c #B837F8",
"dX c #B33BFC",
"fX c #C83AFD",
"gX c #A544E9",
"hX c #B54DED",
"jX c #A448F3",
"kX c #B94BF6",
"lX c #BD43FD",
"zX c #C749FA",
"xX c #DC43FC",
"cX c #CA57F8",
"vX c #D857FC",
"bX c #E15CFC",
"nX c #C765FA",
"mX c #DC63FB",
"MX c #D768F9",
"NX c #E468FB",
"BX c #E875FB",
"VX c #F27EFE",
"CX c #EA84F7",
"ZX c #F688FD",
"AX c #F691FD",
"SX c #FDAAFC",
/* pixels */
"          . . + $ . . . . . . .       . . . . O O $ 5 6 T d - q q q $ $ O ; w B B C B d B V V e $ = + - $ .                     ",
".   . O . . + + : : . . . . . .         . . . . O O $ $ d d 6 d = p 6 $ + , 6 B d z z p C Z Z q $ - - = + O . . .   .           ",
"$ + + + O + : < p 8 + X X . . .   . . . . . . O O O + $ ; b q z - B d - $ , , w 6 b d q b C z d , p d + O $ O + = . .           ",
"+ $ $ $ : 6 8 < , O @ @ @ @ . . . . . . . . + $ + O . = + d C d $ p C p $ $ $ = , d 6 , d U i b w U q $ $ $ $ < p - $           ",
"$ $ = : < < $ + O @ @ @ @ O . . . . . . . . O $ $ + . + + 6 Z d - , d z 6 $ $ $ , w 6 6 Z U s Z m T , ; 6 $ , 6 , $ $ $ O       ",
"+ + + $ $ $ O + @ @ @ @ O + O . . . . O O O $ - , = + $ + < Z w w w m m d 6 $ $ 6 6 6 z I b p Z U U 6 d w , = , ; $ $ = - $ .   ",
"  . . O O O X o o @ @ O $ = - ; = $ $ $ = - 6 p 6 , ; , = 6 C p b Z ] I w q - = 6 p z C b d d T U T b I q 6 6 6 $ + . . O + O . ",
". X . X + @ * @ @ @ X + + $ - - , 6 q p p b C d q w q 6 i b z z M ) E T d q , , 6 Z T C z C z Z m ] 8.T q 6 ; - + O . . . . .   ",
". X + O & @ @ @ o . O $ $ $ $ 6 U U C U ) &.d w i q 5 q b l z b E s C T [ b 6 8 d ) U C b I T Z b ] a.T b b p 5 - $ O O + O . . ",
". O O + & @ @ X . O O = $ $ 5 +.' I U T / m s w 6 5 q b M F b K x B R &.V.) C b Z T C b z ) ` U O.N.k.8.T T / d q ; $ $ - - = > ",
"+ O & & O O @ . . O + - ; 5 / -.d i i d w 6 w , ; q d 2.4.4.m w x B K.y.T ` I C C b d b I &.' E k.k.i.[.b.] ) T b 5 ; , 6 6 < e ",
"+ + 1 2 @ O O O O + ; q p &.&.q 5 - - ; , 5 w 6 d b 7.b.] F m z V T @.I 0 6 5 s w 8 q i ` &.' &.j.F.f.'.oXq.4.$.' m q 6 , 6 $ 6 ",
"& & 2 2 $ + $ + $ ; i C +.+.i ; = - - , ; ; 6 s F T ' O.' F C Z R ` I F ) E b w 6 q q p T m ) &.8.p.C.!.'.F.J.J.f.8.U 5 < e < q ",
"& & < - $ $ $ ; 6 d I T T I b 6 5 8 5 5 5 6 q s O.6.) J V.[ ` I ` ) ' q.e.] F 0 w q i h U b ) +.&.V.p.A.`.}.'.f.n.a.4.6 < r r f ",
"& < < , = $ 5 i b +.I +.:.m i q z p q u z s ~ q.j.b.8.&.&.5.&.&.' a.q.O.F E ] _ s b m I / d T T &.p.0.0.F.J.H.0.j.&.t.R f 6 6 , ",
"> : , , ; 6 h T 8.C./ m d b b b s u z M L F O.f.n.`.F.A.V.p.F.v.i.'.9.O.~ ] g.2.] ) m T T i m b D %.0.0.p.C.C.f.F.8.` { x w 6 ; ",
"= = = ; 9 I +.-.p.%.I d b ) F b b b F ] 7.$.i.9.v.}..X+XQ.x.`..X.X.Xv.i.6.h.M.2.4.O.) ) I d d p d h D T H ' 0.A.G.A.` U p 6 , , ",
"= = 5 m ' Q.!./ h b C T ) T F F F J O.q.i.N.oXc.^.1X%XeXeX.X%XwX7XwX@Xf.i.O.M.e.i.O.' T b d q 9 h h Q ( ' / $.V.K.K.t.T d 6 , 6 ",
", 5 m C.|.H.T d d d b F Q ) ~ ^ ^ 6.j.Y.R.5XkX5XjXjXjXcXMXcXkXcXzXcXiXT.j.O.7.).h.O.F m u d h n D Q #.=.;.:.C.K.V.V.' m q = , , ",
"; i T S.H.0.o.h d p m J ) ~ $.9.i.Y.@X8XzXBXhXc.s.*.<.P.=XjXnXBXAXAXBXeXOX6.4.b.b.] F m b F D H ^ i.n..XwX#X~.y.8.&.o.i - $ = + ",
"5 m :.C./.V.T d d d F F ^ 6.v.I.W.2XiXmXBXcXY.6.O.W ....*.<.l.W.jXnXMXBX:X4.^ ).).8.8.) J F Q 9.I.I.U.6X1X~.f.0.a.&.O.d ; = # + ",
"p / !.#Xa.h u 9 u s ' O.9.v.T.2XaXdXcXMX;Xc.6.~ G S S G W ..X.*.u.l.z.g.1.L F O.q.7.O.) J o.f.}..X&XpXwX7X Xn.f.0.&./ ' p 6 = + ",
"q 0.1Xf.s u q u s n 6.j.N.W.,XzXvXNXhX'.i.4.~ S n g g k j S H Q ! ! ~ ~ F v M O.9.OX).O.] 6.v.&XqXaXdX9XpX1X'.f.O.o.T &.+.6 $ O ",
"h !.]./ d p u d D ^ 9.oX,X8XiXvXZX<Xc.9.O.L n v s u u y a s g g n n n v z u u F o.oXv.4.O.6.9..XaXzXzXpXrX.Xv.a.$.) U T [ i $ $ ",
"o.^.J.T p q u M ) O.i.T.8XdXzXBXgXb.7.] J n s u 0 q 5 5 9 q q u u u u 0 0 9 9 u ^ m.$.q.6.6.j.Y.iXBXVXvXaX.Xm.f.6.O.) / T I p ; ",
"0.`.F.) b d M J ' 6.m.2XiXbXNXtXc.7.~ F v s 0 5 5 , ; ; ; ; , 5 5 5 5 5 5 5 5 y n b.^ 4.q.q.j.Y.tXAXZXvXdX&X`.H.q.] T / +.' i = ",
"J.#XJ.' m m F F ~ j.,X9XsXvXiXl.*.^ G v s 0 5 , ; ; = $ = = = ; ; ; ; ; , 5 9 u g ^ ~ 6.v.j.c.E.sXSXZXzXrX1X`.v.0.' ) T T / b , ",
"C.`.'.=.) m M n J #.f.+X&X7XP...W S v u 0 5 , ; $ $ + + + + $ $ $ $ = ; , 5 9 s v Q X.i.R.T.U.,XBXZXNXdXpX&X`.a.6.E T m m d p p ",
"d.H. XH.a.m b b D ~ 9.T.+X&X..G j s u 9 5 , = $ + + O . . O O O + $ = ; , q u g F ^ i.s.W.2X8XNXmXvXlXwXwX#Xn.a.$.T M b i 6 = = ",
"-.:.H.(.!.J b m F ~ ' 9.I.u.A g a 9 5 , ; = $ + O . . . . . . O + $ = ; 5 u g S ^ 9.oXgXtXdXzXlXpXlXrXqXqX+Xv.$.J b u 5 ; $ O . ",
"' -.p.J.#X0.O.) ] 4.O.o.^ o.a 9 9 5 ; ; $ $ + . . . . . . . . . + $ ; 5 q s n Q =.z.eXBXNXzXlXrXpXaX9XrX1X`.j.' m u ; = + O . . ",
"+.%.0.p.F.v.oX$.4.h.O.' Q o.9 3 ; ; = $ + + O . . . . . . . . O $ = , 9 u g H X.s.,XcXNXzXaXwX6X9XfXsXeXQ.d.%.J h 5 = $ + . . . ",
"+.-.S.d.C.x.3X9.k.q.h.O.O.J ; ; = $ $ + O O . . . . . . . . + + $ ; 5 9 s D ' ;.P.kXVXvXzXwX&X7XsX9X=XqXx.#.Q k y ; $ + O . .   ",
"' p.Q.!.V.f.,Xb.k.q.4.E 4.m ; = $ # + + O O . . . . . . . + + $ = , 0 s Z J #.s.4XBXvXdX7X7X8XpXrX%XXXQ.:.' T h 9 = $ + . . .   ",
"' d.!.Q.F.y.A.Z.q.q.4.) 6.m ; = $ # + + + + + + + O O O + + $ = , 5 x z M ' =.l.cXzXlXrX%X.X%XwX{.U.^.=.( H D h 9 - $ + . . .   ",
"/ -.!.|.G.8.5.a.e.k.4.) ) b q ; = $ # # # # # # # # # $ $ $ = , 5 0 l M E ^ *.W.vXlXdX&X{.{.*X{.n.d.0.o.H h d i ; = + O . . . @ ",
"m / V.]._.y.8.q.g.M.q.O.J M u ; ; q ; = = = = = = = = = = ; , , 0 l l M _ X.l.eXNXbX8X.XI.x.x.p.#.( H k d p i 6 ; $ O . . . . o ",
"d ` &.].J.C.j.b.N.[.N.6.' F s 9 q m Q 3 ; ; 3 3 3 ; ; ; ; , 5 8 c V N K | 9.W.vXvX2X2X.Xs.;.=.! H m s y i 6 q 6 ; + . . . . @ X ",
"Y [ y.].H.`.J.,X3XoXR.j.9.6.J F M J F m y y y y y 9 4 9 5 w w l V K | | w.N.zXvX,XY.'..Xa.=.' D h s 9 q q q 6 6 = $ . . @ @ @ @ ",
"V Y [ -.S.`.^.+X9X,X;XR.m.R.6.~ D n k H $.f.X.A A g a a y u c z K P 3.r.-XcXVXaXOXb.m.@Xi.O.F m h i q q 6 q q q q $ @ % % X @ . ",
"r i h ( -.0.f.^..X9XuX9XuX3X9.O.~ M g D Q n.T.@Xc...W A m m m U ^ g.;X>XCXAXzX:X[.).[.).O.E M l s q q q i b T I B e % > & % O . ",
": ; p I / &.-.f.n.`.9XfXxX3Xu.6.^ ~ F J ^ f.@X,X1XwX@XJ.=.o.@.j.<XaXzXcXyX:X[.N.g.7.e.[.k.E F z q 6 6 p C ( +.&.+.Y x > % O . . ",
"+ $ ; p h D D H o.;.z.&XfXsXz.=.^ ~ J J 6.v.}.oX}.I.#X4X4XoXv.v.Y.).k.M.w.w.w.3.w.e.7.L.k.E b z z w b C h / +.-.%.[ c > . . . . ",
"O + $ 5 d d h n S Q =.z.&XfX2Xs.Q n n J O.O.9.$.&.&.8.&.$.o.' O.^ ] | | | | P _ 3.g.7.4.q.) z s w d T / T I %.,.[ p - + O . . . ",
". O # = 5 p h m D ! ! X.z.aXuXv.W j g h F ~ O.D U E ` ' D F M M M K K K N K P  .M.;X4.2.2.) d i d b / / U U Y Y B 6 = $ . . . . ",
". O + $ = q d D / ' Q ! *.W.sXn.W j g a s s M b b U h d b d s l l b M N K _ _ k.3X;X4.4.8.T b d b m T T } Y Y B p , $ + O O O + ",
". . O + # ; i m D / / o.#.u.3X@X..A k s s u s h b b b d q u d s b L _ 2._ 2.e.;XN.4.J T ' &.0.-.&.&.+.` } >.} C h w = + + $ + . ",
"  . . . + $ 5 d I ' &.$.f.x.z.uXc...W j s g g F F E b s u d F ) O.k.;X4._ 4.k.M.O.L F ) -.C.H.|.XX$XK.~.V.,.+.I U p - < = $ . . ",
"    . . . + $ ; p D / -.d.XX^..XaXT.u.X.S S ~ J s b ) F J F O.N.E.;X;Xh.O.] 4.4.O.O.-.a.F.S.S./.~.K.G.K.V.:.-.+.T b q - + O .   ",
".   . . . O # = 5 d m ( :.^.*XXX&XuX<XE.j.$.O.~ k n n J O.h.q.h.N.@X3XR.b.9.6.$.a.F.!.`.f.-.V.V.-.y.>.y.:.' d 6 - $ + . . .     ",
"      . . . + $ 6 d d T %.S.XX*XXX*XiXuXuX@Xm.=.$.o.! H ( 0.(.8.0.'.<X9X3XoX'.(.f.S.^.!.d.0.V.>.t.} ` / d ; # # + O O + .       ",
"    . . . . O $ 5 d h I +.0.S.^.|.|.*X&XrXuXuX@X'.@X(.f.0.H.v.H.S.H.f.Y.<X'.m.'.'.`. X!.H.H.C.V.V.%./ d = # # + + . . .         ",
".       . . $ ; q p d b I +.+.&.p.F.|.XX*X1XwXpXrX7X1X7X`.Q.S.H./.Q.d.:.0.0.$.$.x.,XJ.S. XXXH.V.' q = # # O O O . . . .         ",
"      . . O - 6 6 q , 6 B T I h h k Q =.v.H.x.J.n.d.d.!.^.|.XX/.|./.H.S.d.d.p.-.:.^.#X X].p.H h 9 = # + + . . . . . . . .       ",
". + O O $ 6 6 q 6 6 q p x V c d 5 4 y a g k S D H Q ( o.:.D.|.*XXXXX|.H.S.p.p.S.|.XX*X].f.' d = = # O O . . . .         .       ",
"+ + $ $ , , 6 , , ; 6 x w w 6 ; ; ; ; 3 3 3 9 y y y a d D ( :.S.:.%.+.( ( +.p.D.d.-.p.d.I 3 ; # # O O . . . .                   ",
". O $ - 6 , - = - < e e 1 > = $ $ = = = = = ; ; 3 ; ; ; 3 3 y d d h d h m h m / I i 3 i i ; # + O O . . .                       ",
"+ . + ; , - - < < 1 < e - + + + + + # # # = = 3 ; ; = = = = = = = = ; 5 q p d d 3 = = = $ # + O O . . .                         ",
"O O $ - 6 < < < e < e < = O O . O O O + + + $ = = = $ = # $ $ # # # # # $ = ; - # # # + + O O . . . .                           ",
"+ + $ $ ; < 2 2 1 2 - $ $ O . . . . . . O O O + + # # + # + + + + O $ O % O + + + + O O . . . . . .                             ",
"+ + - $ , < : % 1 $ + O + .   . . . . . . . . O O O . O + + + + . O @ % % @ O . O O O . . . . .                                 ",
"= 6 6 6 r r $ % O O . O .           . . O . . . . . . . + . . . . O % O & X . . . . . . . .                                     ",
"6 - : 6 t 1 % + O . . .             . . + .   . .   . . . O O . O @ & @ @ . . . . . .                                           ",
"< e < e r < $ $ + + + X           . . . + . . . .   . . . O O X @ @ @ X . . . . . .                                         o o "
};
