/* XPM */
static char *_17e63db73304002e75ec6c5bbc3f903MyBwF3kFVHX2hn1z[] = {
/* columns rows colors chars-per-pixel */
"64 64 199 2 ",
"   c #000000",
".  c #0B0B0B",
"X  c #131313",
"o  c #171815",
"O  c #1B1B1C",
"+  c #22221E",
"@  c #160F22",
"#  c #171022",
"$  c #191225",
"%  c #1E1C22",
"&  c #1D132D",
"*  c #1F1A2B",
"=  c #1F1E35",
"-  c #211E23",
";  c #231D2B",
":  c #221635",
">  c #241A34",
",  c #241738",
"<  c #251B3A",
"1  c #281B3E",
"2  c #1D2735",
"3  c #232225",
"4  c #2A2622",
"5  c #26242B",
"6  c #29262C",
"7  c #2B2A2C",
"8  c #342F25",
"9  c #373428",
"0  c #272233",
"q  c #2B2434",
"w  c #2E2B32",
"e  c #24233D",
"r  c #2B243C",
"t  c #252B3C",
"y  c #312F34",
"u  c #32293A",
"i  c #22333D",
"p  c #333235",
"a  c #3C3834",
"s  c #36343A",
"d  c #3A393C",
"f  c #413E29",
"g  c #403732",
"h  c #473E39",
"j  c #2D5E23",
"k  c #36403C",
"l  c #4C451C",
"z  c #554C1A",
"x  c #635713",
"c  c #504A2C",
"v  c #484538",
"b  c #4B443B",
"n  c #534C39",
"m  c #5C563B",
"M  c #655C2D",
"N  c #635D38",
"B  c #746925",
"V  c #6B6438",
"C  c #776D32",
"Z  c #2B1D43",
"A  c #2C2244",
"S  c #2F2449",
"D  c #31254C",
"F  c #33294F",
"G  c #263744",
"H  c #3B3846",
"J  c #342750",
"K  c #362A53",
"L  c #382D57",
"P  c #3A265A",
"I  c #3A2F5A",
"U  c #3C305D",
"Y  c #3E3161",
"T  c #423C4B",
"R  c #443857",
"E  c #422B66",
"W  c #403164",
"Q  c #48376A",
"!  c #4D3675",
"~  c #4E3878",
"^  c #52397D",
"/  c #2A404C",
"(  c #2E4858",
")  c #344C54",
"_  c #37555C",
"`  c #385768",
"'  c #4E4B44",
"]  c #47464A",
"[  c #514C46",
"{  c #5B5445",
"}  c #525050",
"|  c #635F42",
" . c #625F4F",
".. c #64585A",
"X. c #5B7044",
"o. c #686749",
"O. c #746946",
"+. c #7C754E",
"@. c #446A6E",
"#. c #466D78",
"$. c #497277",
"%. c #81752D",
"&. c #817631",
"*. c #857C46",
"=. c #827749",
"-. c #847E52",
";. c #8B737B",
":. c #937C7B",
">. c #438834",
",. c #528D42",
"<. c #739D46",
"1. c #5DB546",
"2. c #7EB757",
"3. c #7F8065",
"4. c #74C65D",
"5. c #8B833D",
"6. c #95883E",
"7. c #8B844D",
"8. c #978A43",
"9. c #9E944A",
"0. c #8B8555",
"q. c #978C54",
"w. c #9A9151",
"e. c #A2994E",
"r. c #A59B54",
"t. c #ACA45B",
"y. c #B4A65A",
"u. c #B6A95B",
"i. c #B8AD5F",
"p. c #8A8C68",
"a. c #8F8871",
"s. c #A08C6C",
"d. c #A59465",
"f. c #A99766",
"g. c #A99C65",
"h. c #B3AC63",
"j. c #BEB365",
"k. c #BEB568",
"l. c #A7A575",
"z. c #ADA772",
"x. c #BAB878",
"c. c #C2BC6C",
"v. c #C6BE70",
"b. c #86CB6B",
"n. c #CBC474",
"m. c #CBC578",
"M. c #D2CD7B",
"N. c #D3D17F",
"B. c #553883",
"V. c #553B82",
"C. c #5B3D8B",
"Z. c #5F3E93",
"A. c #613F95",
"S. c #5F4191",
"D. c #6A4C8E",
"F. c #75588A",
"G. c #634296",
"H. c #644398",
"J. c #65429C",
"K. c #735297",
"L. c #6743A0",
"P. c #6843A0",
"I. c #6944A2",
"U. c #6A45A4",
"Y. c #836980",
"T. c #558581",
"R. c #5C9089",
"E. c #B2B882",
"W. c #AFD48A",
"Q. c #C0C385",
"!. c #CBC987",
"~. c #D9D582",
"^. c #D8D788",
"/. c #DDDD8A",
"(. c #D4CD90",
"). c #CED190",
"_. c #E1DE91",
"`. c #D5E38C",
"'. c #D3EE91",
"]. c #DAF194",
"[. c #E3E28E",
"{. c #E6E791",
"}. c #EAEB94",
"|. c #ECEF9A",
" X c #F2F59E",
".X c #DAD9AA",
"XX c #C6E9A0",
"oX c #ECF9A4",
"OX c #F6FAA3",
"+X c #F9FEA5",
"@X c #F1F5AE",
"#X c #FAFEAA",
"$X c #E6E5B6",
"%X c #E8F4B9",
"&X c #FAFEB3",
"*X c #F7FBBA",
"=X c #F6F8C4",
"-X c #FBFEC1",
";X c #FEFED0",
/* pixels */
"                                                                                                                                ",
"                                                                                                                                ",
"                                    . X                                               . X .                                     ",
"                                  . H R O                                           . s L 7 .                                   ",
"                                  - Z C.R O                                       . s ~ V.% o                                   ",
"                                . d > ~ C.R o                                   . y ! Z.I ; 7 .                                 ",
"                                - * L U ^ C.R X                                 7 ! G.W I S % X                                 ",
"                                6 & I I ~ P.C.H X                           . 6 Q G.J.U I F ; o                                 ",
"                              . d & I I U V.L.V.H .                         3 Q G.L.W I I F 0 5                                 ",
"                              O $ Z I I I U V.I.V.T 5 5 5 5 5 5 5 5 5 5 5 w Q A.I.Q I I I K > % .                               ",
"                              3 # Z I I I I V.U.J.C.^ ^ ^ ^ ^ ^ ^ ^ ^ ^ ^ V.G.I.I.W I I I K , ; X                               ",
"                              3 # Z I I I I U C.U.I.P.P.P.I.P.P.P.P.P.P.P.P.I.U.Q I I I I K , ; X                               ",
"                              3 @ A I I I I I V.I.! W W W W W W W W W W W W C.I.Q I I I I K , ; X                               ",
"                              3 @ A I I J J ^ ~ W U I I I I I I I I I I I I Y W C.W I I I K , ; X                               ",
"                              3 @ Z D J E ~ U U I I I I I I I I I I I I I I I I Y I S I I K , ; X                               ",
"                              3 # Z Z E V.U I I I I I I I I I I I I I I I I I I I U C.D L Z , ; X                               ",
"                              O # 1 Z E V.I I I I I I I I I I I I I I I I I I I I I W C.Z Z : % .                               ",
"                              . s & P V.Y I I I I I U S.H.H.H.H.H.H.H.G.~ I I I I I U A.Z < 0 6                                 ",
"                                6 @ < Y I I I I I C.H.s.f.f.f.f.f.f.f.f.Y.G.Q I I I I Q V.$ ; o                                 ",
"                              . s & J I I I I V.G.a.f.y.y.y.y.y.y.y.y.y.g.f.F.G.W I I I W S 5 3                                 ",
"                              O * J I I I I ^ ;.f.y.y.u.y.y.u.u.u.y.y.y.y.y.g.f.F.W I I I I A % .                               ",
"                            . p & I I I I ~ ;.y.y.u.u.[.C %.}.|.|.c.B 6.y.y.y.y.f.D.U I I I S q O                               ",
"                          . 7 ; F I I I I ^ :.y.y./.|.OX[.[.+X+X+X X/.{.|.n.y.y.y.K.Y I I I L A 7 o                             ",
"                        . 6 ; D I I I I U ^ :.y.~.OX+X+X+X+X+X+X+X+X+X+XOX|.}.c.y.K.Y I I I I L r 7 o                           ",
"                        5 ; D U I I I I ..d.!.}.r.&.2.X.%X+X+X+X+X+X&XE.<.<.&.M.}.g.q L I I I I L r 7 X                         ",
"                      . % : A I I I I S | M. X*X$X2.1.j b.=X+X+X+X&XXX,.>.1.W.=X#X}.q.> I I I I J 1 ; O .                       ",
"                      . 7 $ $ Z D I I A m N.+X+X&X%X4.j 1.b.OX+X+X'.4.>.>.W.@X&X+XOXy.; I I K Z < # w O                         ",
"                        . - d # & Z Z Z q +./.+X+X#X].`.'.].+X;X-X X'.`.`.oX+X+X+Xv.h 1 Z Z 1 # q w O                           ",
"                            X 3 s @ & Z 1 q -.[.+X+X+X+X+X+X}.*.t.+X+X+X+X+X+X+Xn.v < Z < # ; y O .                             ",
"                                X 3 y @ # @ 5 7.{.+X+X+X+X+XOX~.`.+X+X+X+XOXOXm.n # # # * s O .                                 ",
"                                  . X 3 5 6 w a h ' ^.+X+X+X+X+X+X+X+X+XOXp.v a d 6 5 5 % .                                     ",
"                                        . . . O 5 ] ' ' [ ' ' ' ' ' ' [ ' } p 3 X . . .                                         ",
"                                                O w > , 2 G G 2 2 G t = : > 7 .           . o .                                 ",
"                                              O 6 > 1 t $.` G 2 i ( @._ e < ; 6 .       . ' p. .o                               ",
"                                            o 6 > 1 e @.R.` H 7.o./ $.T.) e , ; 6 .     + l.|.).{ .                             ",
"                                          . 3 > 1 Z 2 T.#.( k y.7.G ` T._ e Z , ; O     o 3.|.@Xa..                             ",
"                                          o w : Z Z 2 _ ( G 0.y.r.o.G _ / e Z Z # p .   . v x.OXp..                             ",
"                                        . - r D J Z < t i 7.j.[.~.r.| i e Z D J S 5 O     a h.OXp..                             ",
"                                        X w Z I I K Z * =.i.{.+XOXM.r.n > D I I I # p . . v h./.o..                             ",
"                                      . % r J I I I > O.y.[.+X+X+X XM.w.v S I I I S 6 6 7 V /.x.9 .                             ",
"                                      . w < I I I 1 O.y.[.+X+X+X+X+X Xm.q.h D I I I $ c M 9.h.m X                               ",
"                                      % r J U I I : q./.+X+X+X+X+X+X+X|.n.n S I I I S 8 8.e.M 8 .                               ",
"                                    . 5 < I I I I : x.OX+X+X+X+X+X+X+X+X|.o.S I I I L ; e.M 9 .                                 ",
"                                    . y < I I I A p.|.M.OX+X+X+X+X+X+X[.[.!.} J I I L ; M a .                                   ",
"                                    O 0 A I I I > Q.+Xk.OX+X*Xm.^.*X+X~.~.+X .D I I I > 4 3                                     ",
"                                  . w $ D I I I > Q.+Xj.e.OX=Xu.m.-XN.r.~.+X .D I I I 1 $ 5                                     ",
"                                . 3 0 , D I I I > Q.+X/.B *X$X%.r.;Xx.9.|.+X .D I I I Z > 6 o                                   ",
"                              . 3 5 : Z K I I I > Q.+XOX9.g.$Xx 7..Xw.n.+X+X .D I I I J 1 > 6 o                                 ",
"                            . 3 6 < J K I I I A { /.+X+X/.8.q.x B w.i.|.+X+Xg.s J I I I D 1 > 6 X                               ",
"                          . 3 q A J I I J J I < =.{.+X+X+X~.6.6.6.t.}.+X+X+Xn.g F I D I I J A > 6 o .                           ",
"                      . O - w A I I I I L K I < =.{.+X+X+XOX/././.{.+X+X+X+Xn.g F I J I I I L S r 6 3 X .                       ",
"                    o 3 w r A I L D I I I I I < =.{.+X+X+X+X+X+X+X+X+X+X+X+Xn.g F I I I I L J I J A u 5 3 .                     ",
"                  X 7 r A L I I I J I K J I I < =.{.+X+X+X+X+X+X+X+X+X+X+X+Xn.g F I I D I I J I I I D A q 3 .                   ",
"                  3 r L I I I D I I I L K I I < =.{.+X+X+X+X+X+X+X+X+X+X+X+Xn.h J I I J I I I L J I I I S q o                   ",
"                  5 q < J I D J I I L J I I I Z h ).+X+X+X+X*X-X-X&X+X+X+X+X0.u K I I I D I I L D J I A > w o                   ",
"                  . 3 p 0 < Z D I L S D I I I D & Q.+X+X+XOX(.(.(._.+X+X+X+X ., K I I I Z D I K A 1 > u 5 O                     ",
"                    . o - s & : D S Z Z D D D Z & g. X+XOXn.&.&.&.9.[.+X+X[.[ , D D D D Z Z D Z & q 6 O .                       ",
"                        . o - s & & : Z Z Z Z Z & *.m.OX XC n f f N h.+X[.k.h : Z Z Z Z 1 & & 0 w - .                           ",
"                            . O - 6 u & & & & & H V r.m.n.z 6 . . f 5.M.k.8.{ > & & & & ; y 5 % . .                             ",
"                                . . O - 3 3 5 3 p l q.l.E.l +   . 9 *.z.l.C v 3 - 3 3 3 % o . .                                 ",
"                                      . . . . . . 9 o.+.0.v X     + | -.+.m + . . . . . .                                       ",
"                                                  X 8 f 9 O       . 4 f f 4 .                                                   ",
"                                                                                                                                ",
"                                                                                                                                "
};
