/* XPM */
static char *da43fade13af4f97c93144149ceacf161SbDAvyZAighxSIO[] = {
/* columns rows colors chars-per-pixel */
"64 64 8 1 ",
"  c #030907",
". c #040A08",
"X c #050B09",
"o c #060C0A",
"O c #070D0B",
"+ c #080E0C",
"@ c #090F0D",
"# c #0A100E",
/* pixels */
"+OOOOOXXOOOXXOOOOOOOOOOOXXXXOOOOXXOOOOOOOOOOOOOOOOOOOOOO+OOOOOO+",
"+OOOOOOXOOOOOOOOXXOOOOOOXXXXOOOOXOOOOOOXOOOOOOOOOOOOOOOO+OOOOOO+",
"+OOOOOOXOOOOOOOOOOOOXXOOXXXXOOOOOOOOOOOOXXOOOOOOOOOOOOOO++OOOO++",
"OOXOOOOXOOOOOOOOOOOOOOOOXXXXOOOOOOOOOOOOOOOOOOOOOOOOOOOO++OOOO++",
"OOXOOOOOOOOOOOOOOOOOOOOOXXXXOOOOOOOOOOOOOOOXXOOOOOOOOOOO+++OO+++",
"OXXOO+OOOOOXOOOOXOOOOOOOXXXXOOOOOXOOOOOOOOOOOOOO++++++++++++++++",
"OXXXO+OOOOOOXXOOXOOOOOOOXXXXOOOOOOOOOOOOOOOOOOOO++++++++++++++++",
"OXXXO+OOOOOOOOOOOOOOXOOOXXXXOOOOOOOOOOOOOOOOOOOO++++++++++++++++",
"OOOOOOOOOOOOXXOOOOOOXXXXXXXXOOOOOOXXXXOOOOOXOOO+OOOOOOOO+++++OOO",
"OOOOOOOOOOOOOOOOOOOOXXXXXXXXOOOOOOXXXXOOOOOXOOO+OOOOOOOO++++++OO",
"OOOOOOOOOOOOOOOOOOOOXXXXXXXXOOOOOOXXXXOOOOOXOOO+OOOOOOOO++++++++",
"OOOOOOOOOOOOOOOOOOOOXXXXXXXXOOOOOOXXXXOOOOOXOOO+OOOOOOOOOO++++++",
"OOOOOOOOOOOOOOOOOOOOXXXXXXXXOOOOOOXXXXOOOOOXOOO+OOOOOOOOOOO+++++",
"OOOOOOOOOOOOOOOOOOOOXXXXXXXXOOOOOOXXXXOOOOOXOOO+OOOOOOOOOOOO++++",
"OOOOOOOOOOOOOOOOOOOOXXXXXXXXOOOOOOXXXXOOOOOXOOO+OOOOOOOOOOOO++++",
"OOOOOOOOOOOOOXXOOOOOXXXXXXXXOOOOOOXXXXOOOOOXOOO+XXXXXXXXOOOO+++#",
"+OOOOOO+OOOOXXXXOOOXOXXXXXXXOOOOOOXXXXOOOOOOOO++OXOXOOOO++OOOO++",
"+OOOOOO+OOOOXXXXOOOOOXXXXXXXOOOOOOXXXXOOOOOOOO++OOOOOOOO+++OO+++",
"+OOOOOO+OOOOXXXXOOOOOXXXXXXXOOOOOOXXXXOOOOOOOO++OOOOOOOO++++++++",
"+OOOOOO+OOOOXXXXOOOOOXXXXXXXOOOOOOXXXXOOOOOOOO++OOOOOOOOO++++++O",
"+OOOOOO+OOOOXXXXOOOOOXXXXXXXOOOOOOXXXXOXOOOOOO++OOOOOOOOOO++++OO",
"+OOOOOO+OOOOXXXXOOOOOXXXXXXXOOOOOOXXXXOOOOOOOO++OOOOOOOOOO++++OO",
"+OOOOOO+OOOOXXXXOXXOOXXXXXXXOOOOOOXXXXOOOOOOOO++OOOOOOOOOO+##+OO",
"+OOOOOO+OOOOXXXXOXOOOXXXXXXXOOOOOOXXXXOOOOOOOO++OOXXOOOOOO+##+OO",
"OOOOOOOOOOOOXXXXOOOOXXXXXXXOOOOXOOOOOOOOOOOOOO+++OOOOOO+OO++++OO",
"OOOOOOOOOOOOXXXXOOOOXXXXXXXOOOOOOOOOOOOOOOOOOO+++OOOOOO+OO++++OO",
"OOOOOOOOOOOOXXXXOOOOXXXXXXOOOOOOOOOOOOOOOOOOOO+++OOOOOO+OO++++OO",
"OOOOOOOOOOOOXXXXOOOOXXXXXXOOOOOOOOOOOOOOOOOOOO+++OOOOOO+OO++++OO",
"OOOOOOOOOOOOXXXXOOOOXXXXXOOOOOOOXXXXXXXXOOOOOO+++OOOOOO+OO++++OO",
"OOOOOOOOOOOOXXXXOOOOXXXXXOOO+OOOXXXXXXXXOOOOOO+++OOOOOO+OO++++OO",
"OOOOOOOOOOOOXXXXOOOOXXXXOOO+++OOXXXXXXXXOOOOOO+++OOOOOO+OO++++OO",
"OOOXOOOOOOOOXXXXOOOOXXXXOOO+++OOXXXXXXXXOOOOOO+++OOOOOO+OO++++OO",
"OOOOOOOOOOOOXXXXOOOOOOOOXXOOOOOOOOOOOOOOOOOOOOOOOOOOOOOO++++++++",
"OOOOOOOOOOOOXXXXOOOOOOOOXXOOOOOOOOOOOOOOOOOOOOOOOOOOOOOO++++++++",
"OOOOOOOOOOOOXXXXOOOOOOOOXXOOOOOOOOOOOOOOOOOOOOOOOOOOOOOO++++++++",
"OOOOOOOOOOOOXXXXOOOOOOOOXXOOOOOOOOOOOOOOOOOOOOOOOOOOOOOO++++++++",
"OOOOOOOOOOOOXXXXOOOOOOOOXXOOOOOOOOOOOOOOOOOOOOOOOOOOOOOO++++++++",
"OOOOOOOOOOOOXXXXOOOOOOOOXXOOOOOOOOOOOOOOOOOOOOOOOOOOOOOO++++++++",
"OOOOOOOOOOOOXXXXOOOOOOOOXXOOOOOOOOOOOOOOOOOOOOOOOOOOOOOO++++++++",
"XXXXXXXXOOOOXXXXOOOOOOOOXXOOOOOOOOOOOOOOOOOOOOOOOOOOOOOO++++++++",
"OOXOOOOXOOOOXXXXOOOOOXX XXOOOOOOOXXOOOOOOOOOOOOOOOOOOOOXOOOOOO++",
"OXXOOOOOOOOOXXXXOOOOOXX XXOOOOOOOOOOOOOOOOOOOOOOOOXXOOOOOOOOOO++",
"OOOOOOOOOOOOXXXXOOOOOXX XXOOOOOOOOOOOOOOOOOOOOOOOOOOOOOOOOOOOO++",
"OOOOOOOOOOOOXXXXOOOOOXXXXXOOOOOOOOOOOOOOOOOOOOOOOOOOOOOOOOOOOO++",
"OOOOOOOOOOOOXXXXXOOOOOXXXXOOOOOOOOOOOOOOOOOOOOOOOXXOOOOOOOOOOO++",
"OOOOOOOOOOOOXXXXXXOOOOXXXXOOOOOOOOOOOOOOOOOOOOOOOOOOOOOOOOOOOO++",
"OOOXOOOOOOOOXXXXXXOOOOOXXXOOOOOOOOOOOOOOOOOOOOOOOOOOOOOOOOOOOO++",
"OOOOOOOOOOOOXXXXXXXOOOOXXXOOOOOOOOXXOOOOOOOOOOOOOOOOOOOOOOOOOO++",
"OOOOOOOOOOOOOOOOOOOOOXXXXXOOOOOOXXXXOOOOOOOOOOOO+OOOOOO+OOO++OOO",
"OOOOOOOOOOOOOOOOOOOOXXXXXXOOOOOOXXXXOOOOOOOOOOOO+OOOOOO+OOO++OOO",
"OOOXOXOOOOOOOOOOOOOOOXXXXXOOOOOOXXXXOOOOOOOOOOOO+OOOOOO+OOO++OOO",
"OOOXOXOOOOOOOOOOOOOOOXXXXXOOOOOOXXXXOOOOOOOOOOOO+OOOOOO+OOO++OOO",
"OOOOOOOOOOOOOOOOOOOOOXXXXXOOOOOOXXXXOOOOOOOOOOOO+OOOOOO+OOO++OOO",
"OOOOOOOOOOOOOOOOOOOOOXXXXXOOOOOOXXXXOOOOOOOOOOOO+OOOOOO+OOO++OOO",
"OOOOXOOOOOOXOOOOOOOOOXXXXXOOOOOOXXXXOOOOOOOOOOOO+OOOOOO+OOO++OOO",
"OOOOXOOOOOOXOOOOOOOOOXXXXXOOOOOOXXXXOOOOOOOOOOOO+OOOOOO+OOO++OOO",
"XOOOOOOOOOOOOOOXOOOOOOOOOOOOOOOOOOOOOOOOOOO++OOOOOOOOOOOOOO++OOO",
"OOOOOOOOOOOOOOOOOOOOOOOOOXOOOOOOOOOOOOOOOOO++OOOOOOOOOOOOOO++OOO",
"OOOOXOOOOOOOOOOOOXOOOOOXOOOOOOOOOOOOOOXXOOO++OOOOOOOOOOOOOO++OOO",
"OOOOXOOOOOOOOOOOOXOOOOOXOOOOOOOOOOOOOOXOOOO++OOOOOOOOOOOOOO++OOO",
"OXOOOOOOOOOOOOOOOOXXOOOOOOOOOOOOOOOOXOOOOOO++OOOOOOOOOOOOOO++OOO",
"OXOOXOOOOOOOOOOOOOOOOOOOOOOOOOOOOOOOOOOOOOO++OOOOOOOOOOOOOO++OOO",
"OOOOXOOOOOOOOOOOOOOOOOOOOOOOOOOOOOOOOOOOOOO++OOOOOOOOOOOOOO++OOO",
"OOOOOOOOOOOOOOOOOOOOOOOOOOOOOOOOOOOOOOOOOOO++OOOOOOOOOOOOOO++OOO"
};
