/* XPM */
static char *dfd7c1a01ee143e2d27d29c470d84e44rXvYfELip23chFym[] = {
/* columns rows colors chars-per-pixel */
"64 64 195 2 ",
"   c #2F2725",
".  c #2E2F27",
"X  c #2D2E2B",
"o  c #272D29",
"O  c #322827",
"+  c #30262E",
"@  c #322D2D",
"#  c #2C322D",
"$  c #33302A",
"%  c #2D2632",
"&  c #2D2B33",
"*  c #2F2B3B",
"=  c #2F273C",
"-  c #322435",
";  c #322A35",
":  c #392C35",
">  c #34263B",
",  c #3A253C",
"<  c #332B3B",
"1  c #3A2A3D",
"2  c #2E3231",
"3  c #35323F",
"4  c #3A303B",
"5  c #352441",
"6  c #3B2741",
"7  c #332A41",
"8  c #3B2C42",
"9  c #3B2E4C",
"0  c #363244",
"q  c #3A3246",
"w  c #373349",
"e  c #3B334B",
"r  c #3D2E54",
"t  c #3D2E5A",
"y  c #363056",
"u  c #3C3254",
"i  c #373358",
"p  c #3D315B",
"a  c #3D2F60",
"s  c #3F3260",
"d  c #442C4B",
"f  c #42334C",
"g  c #443A4D",
"h  c #422E55",
"j  c #482B57",
"k  c #422E5A",
"l  c #4A2D5C",
"z  c #48255D",
"x  c #423255",
"c  c #4C3551",
"v  c #463A54",
"b  c #493D51",
"n  c #43335B",
"m  c #49355C",
"M  c #46385D",
"N  c #4B3A5E",
"B  c #513D54",
"V  c #53375F",
"C  c #533D5E",
"Z  c #5C3E5D",
"A  c #463561",
"S  c #493561",
"D  c #463A60",
"F  c #4D3C63",
"G  c #4F3F69",
"H  c #523661",
"J  c #5B3664",
"K  c #543D64",
"L  c #5A3C65",
"P  c #5C3669",
"I  c #543E69",
"U  c #5C3C6A",
"Y  c #533F70",
"T  c #5F3D70",
"R  c #613767",
"E  c #613A65",
"W  c #603668",
"Q  c #623C6C",
"!  c #693D6E",
"~  c #623D70",
"^  c #6A3D72",
"/  c #4D425C",
"(  c #53425E",
")  c #5B415E",
"_  c #60435F",
"`  c #4E4063",
"'  c #544164",
"]  c #5A4263",
"[  c #554269",
"{  c #5B426A",
"}  c #584963",
"|  c #5D4271",
" . c #5D4871",
".. c #614866",
"X. c #63436D",
"o. c #69446E",
"O. c #664C6F",
"+. c #604361",
"@. c #6D546E",
"#. c #6E586F",
"$. c #61516B",
"%. c #70536F",
"&. c #654472",
"*. c #694473",
"=. c #644A73",
"-. c #6A4B75",
";. c #6B4679",
":. c #6D4B7B",
">. c #72467B",
",. c #724B7C",
"<. c #794D7E",
"1. c #665077",
"2. c #6E5673",
"3. c #6F5974",
"4. c #675178",
"5. c #6D537B",
"6. c #715574",
"7. c #715875",
"8. c #73547C",
"9. c #78537F",
"0. c #775C7F",
"q. c #7C5D7D",
"w. c #7B5A75",
"e. c #76627C",
"r. c #7B607E",
"t. c #815F7D",
"y. c #81527C",
"u. c #84627D",
"i. c #754E82",
"p. c #7B4F81",
"a. c #6B5882",
"s. c #745283",
"d. c #7C5584",
"f. c #765B85",
"g. c #7C5B84",
"h. c #775588",
"j. c #7D558A",
"k. c #73598C",
"l. c #7D5B8A",
"z. c #7F5793",
"x. c #7A5C91",
"c. c #765A94",
"v. c #766087",
"b. c #7C6183",
"n. c #7D618A",
"m. c #7D6192",
"M. c #824F87",
"N. c #825686",
"B. c #825A85",
"V. c #83568C",
"C. c #88568F",
"Z. c #835A8C",
"A. c #895A8D",
"S. c #8C5D87",
"D. c #855691",
"F. c #895592",
"G. c #845A91",
"H. c #895A92",
"J. c #83618B",
"K. c #8C6889",
"L. c #986C8F",
"P. c #806092",
"I. c #966990",
"U. c #996C9F",
"Y. c #92669B",
"T. c #977398",
"R. c #A17E9F",
"E. c #9E77A3",
"W. c #A985A4",
"Q. c #B38EAF",
"!. c #BB96AD",
"~. c #B79AAE",
"^. c #BD9BAF",
"/. c #B184B6",
"(. c #BE8FB9",
"). c #B794B2",
"_. c #BA96B5",
"`. c #BA99B5",
"'. c #BD9AB5",
"]. c #BE9CB6",
"[. c #BB9BB2",
"{. c #BD97B8",
"}. c #BD9AB9",
"|. c #BF9DB8",
" X c #BCA0B4",
".X c #C19BB4",
"XX c #C496BC",
"oX c #C19ABA",
"OX c #C19DBB",
"+X c #C19DBD",
"@X c #C0A0B7",
"#X c #C7A0BD",
"$X c #C192C6",
"%X c #C799CA",
"&X c #C599C4",
/* pixels */
"u.K.|.[.[.@X[.[.[.[.[.[.'.[.'..X'.!..X.X!.^.].R.A.9.1 < B.y.#X^.].'.[.].].[.[.[.[.~.[. X].[.].[.[.[. X[.[.[.[.[.].].[.[.|.].'.t.",
"q.L.).+XOX'.[.].'.'.'._.{.oXoX}.+XoXOX.X.X].).W.A.8.; % q.S.{.}.{.{.{.{.{.}.}.].].`.`.|._.}.oX{.}.OX).).OXOX`.OX}.}.+X{._.&X).B.",
"%X/.A.d.N.B.B.B.B.B.B.B.B.B.B.Z.B.B.d.B.Z.B.J.T.(.Q.1 ; +XXXB.Z.Z.Z.Z.Z.B.B.Z.B.d.! Q g.B.Z.N.B.B.g.E E d.B.N.B.Z.N.Z.Z.A.N.A.$X",
"$X/.A.A.N.Z.B.d.B.d.g.Z.Z.Z.Z.V.Z.Z.Z.H.Z.h.l.E.XXW.- % [.&XZ.Z.Z.j.V.V.N.Z.Z.g.Z.P J Z.Z.Z.N.Z.A.l.J Q d.B.Z.Z.N.Z.Z.Z.A.V.V.$X",
"U.Y.Z.Z.*.*.*.-.&.&.&.*.,.j.j.;.~ *.*.&.;.l.Z.J.L.u.: : K.I.Z.Z.*.&.*.&.-.g.g.*.o.L L -.X.f.g.9.X.o.L L X.X.*.X.g.B.,.*.! Z.A.U.",
"A.Z.Z.d.J L L K I { L K &.n.l.U X.J P H U h.l.g.B.w.; + q.B.j.G.U U L K &.n.f.L K L L K K 8.l.8.I ' K { I K { L 8.g.-.X.Q f.f.g.",
"d.g.9.8.L K K ' ' ' ' I { 5.5.K C C { K U &.=.s.Z.8.; : b.B.-.&.K F I I { 5.5.K { ' I I L -.5.=.' F F ' I I { I =.8.X.K X.f.8.l.",
"B.9.J L L ' ' ' ' N ' [ K I { K ' ( ' r h k m | x.f.& & v.l.j j x r F [ I K [ ' I I ' ' I I U I ' ' [ ' ' ' K I L K U { K K L g.",
"d.d.J L L U [ I ' ' I I I I I I K ' F x t t A Y c.a.< < a.k.S h h n M F I I K K K [ I K [ I K ' ' ' ' ' ' ' I K I K L K L L { f.",
"P &.l.l.U H I I k k t k k k k k r p p p p t t n k x & % x A r n t t x x j j j j j F [ [ I m h h x p p p x x h h K K L I L L V L ",
"U L n.f.I [ [ [ p p p p k k k k r t i p p p p r f q ; ; 0 u p p p p p t t k k k x F [ [ G A k n p p p p p p x x [ [ [ I I { [ I ",
"x x ' ' K ' r u u u u u p p p p x r u i y i p 9 > ; @ X & 7 u p i i i p p p x p p p p u p p r x u u u u u p p p r u M F F ' F x ",
"9 v / / } / e e e e e e e e u u x u u u u u f 8 - @ $ $ & < 9 x u e u u e e e e e e q q e e e e e e e e e e e e e e v ( ( } / q ",
"< 1 > > < > > > > > < > 7 7 7 7 5 5 7 7 > > > > 1 : O   ; < > 7 > * > > > > > ; ; > > < > > > > > > > > > > > > > > ; ; % > 7 > ",
"> - , > 1 , 1 > , , , > > > > > 6 6 < ; ; > 1 6 5 6 : ; < < > 1 > > > , , , 1 1 > > > > > > < < > > > > > > > < > 1 1 1 - - 1 - ",
"B ) 6.@.7.%.@.7.6.6.6.6.6.2.2.2.6.8.2.2.3.#.2.6.s.8.6.#.5.5.2.@.2.2.2.6.6.6.6.6.7.2.2.2.2.3.2.2.6.6.6.6.2.2.2.2.6.7.@.2.7.7.@.C ",
"J o.g.g.Z.B.B.B.Z.B.N.N.Z.B.B.Z.Z.V.N.Z.Z.Z.N.Z.D.H.N.N.Z.A.d.B.B.g.Z.Z.N.d.V.A.V.Z.Z.Z.Z.l.Z.Z.Z.Z.N.Z.Z.Z.A.d.B.g.d.B.g.g.Z.J ",
"i.,.Z.F.N.Z.H.V.V.C.H.C.V.V.V.V.V.F.H.D.V.D.F.V.V.V.H.H.V.j.,.,.;.,.d.N.V.H.F.V.C.F.V.Z.V.j.Z.Z.C.H.C.V.V.V.V.Z.V.Z.Z.H.F.N.V.>.",
"j.G.G.G.j.D.j.G.D.D.F.G.G.F.F.N.Z.N.N.Z.Z.Z.Z.N.Z.Z.N.N.A.Z.J L L P ,.Z.Z.N.V.V.V.V.V.F.Z.Z.A.N.V.D.V.V.F.F.V.V.V.F.V.j.V.H.Z.j.",
"G.G.V.G.j.G.s.j.j.h.j.G.h.h.j.d.d.Z.Z.d.d.l.d.d.d.d.Z.d.g.f.L L { L -.f.d.Z.A.d.d.Z.N.N.Z.d.f.d.Z.Z.V.Z.j.h.Z.Z.h.h.j.Z.j.V.j.H.",
"Z.h.Z.Z.J Q U L L X.8.n.:.U P U J l.l.U L U L U U U B.l.L L I { K I I I &.l.l.P ~ l.G.Z.l.*.Q ;.Z.G.Z.l.~ P Z.Z.&.P Q P Q Z.Z.d.",
"A.B.Z.g.U L C L C ] 5.f.5.{ K L L l.f.{ { I L { L U f.f.L I K ' ' [ [ I  .l.l.U P l.l.l.l.*.L &.g.l.g.g.U L g.g.X.L J J X.B.J.g.",
"d.d.J Q f.f.L ] ] C C K I K I { L { I K K n h m I L L { { ' h r r r r h m I { L L X.U L U L L U { L U { K K { L U K -.J.q.J L g.",
"V.h.P P g.b.K ( C ' ' K ' [ I I { K I [ I n x m ' I K ' I ' x u u x x h m K ' I I L I I I I { I L K L K { { K K K L -.0.g.Z L g.",
"Z.j.P L U I K ' K ' ' ' F h h I ' [ K x r r x x r m K ' ' ' ' ' N ' ' K ' ' K h h h x K [ ' K N h j [ [ h h ' ' I L L K L L L L ",
"Z.i.Q U L L ' ' ' ' F F F x x I I ' F n p p x p x n F I ' F ` ' F ' K ' ' K F n x x x M ' ` F F x x F I x n F F I ' ' I L L L L ",
"Q *.l.l.L K I ' ' F M x x r r m x m n p t t t t t k n n n n n n I I I [ F m x k x t t M M n p p p t n M t t m x G [ I I I I I I ",
"L { l.f.{ [ I ' ' ` n p x x r t t t t p p p p s a t t t t t t t [ I I [ F t t p n p p p p i t t p t t p t p p t G I [ [ [ [ [ I ",
"H H =. .I [ n n M n x p p p p p n p p p p p i p p p p p n p p p n F S F A p p p i p p p p p p p p p p p p p p p n n F ' ' ' K M ",
"9 x ' ' ' ` 9 p u p p u u p p u p p u u u u u u u p p p p p p u 9 u u p u u u u u u u u p u p p p u u u u u u u e e v / ( ( N x ",
"q q g b g b q e e q e q q w 0 0 0 0 0 0 0 w e w e q q q q 0 0 0 0 w 0 q 0 0 w 0 w e e q q q 0 0 q w w q w q q q 0 0 g b b b b q ",
"; & ; 1 - > - > > > < < ; ; ; ; > > ; * & & & & * ; ; > > > > < ; ; * < > * ; < ; ; > ; > > > > < > > > > > 7 > < - > > - > 1 > ",
"- 1 > - 1 , , , , , , , , , > , , , < ; & # o 2 & ; 1 > 1 , 5 5 , , , , > > 6 , 1 > , , 6 , , , , 6 6 6 > > 6 , , , , , 1 - > > ",
"( } b.r.q.b.q.B.q.B.b.q.r.r.q.q.q.r.e.> & X # X ; 8 e.r.q.r.b.b.q.t.q.q.r.b.b.7.q.g.g.q.q.B.b.g.q.g.0.g.v.v.g.q.g.q.q.q.r.b.b.' ",
"U X.l.B.l.A.Z.Z.A.Z.d.d.Z.g.f.B.B.g.g., 8 % & 4 6 d g.g.g.g.l.l.Z.Z.Z.B.l.g.g.J.g.B.Z.B.Z.Z.Z.Z.d.B.Z.j.Z.Z.Z.A.A.Z.B.Z.g.l.h.U ",
"Z.Z.Z.G.V.V.F.j.j.G.Z.Z.s.U Q Z.Z.N.J.8.e.g > B q.B.Z.Z.A.Z.Z.V.V.V.N.G.h.U T x.Z.G.Z.Z.Z.j.Z.Z.G.Z.H.V.F.D.D.H.V.V.N.V.F.V.F.H.",
"V.F.V.V.F.F.G.G.Z.F.Z.j.i.P Q d.Z.H.N.Z.b.d , ..B.A.M.V.N.Z.Z.F.F.F.Z.l.s.U U h.Z.Z.j.Z.Z.Z.G.j.Z.p.H.F.F.F.H.V.V.Z.Z.Z.H.F.D.F.",
"A.Z.H.V.F.V.U P G.d.&.P U P J Q P N.V.Z.g.d 8 C B.V.H.A.J Q P Q d.j.:.P U U L Q U P ~ l.l.*.Q U Q Q Z.Z.V.C.H.V.^ W >.F.V.F.F.F.",
"V.N.Z.A.Z.l.Q L f.f.-.L C K L L U g.Z.B.b.f 8 C Z.N.Z.l.K L L Q g.g.-.K K L I K L K { f.n.{ I K C L g.N.A.A.N.Z.*.L -.B.f.Z.V.C.",
"A.Z.N.B.*.X.{ I K K ' ' ' ' ' K K =.o.g.e.f > ] B.N.o.o.' C L K X.{ { ' K x n ' I { K K K C { C ' ' O.o.B.N.*.*.5.5.-.X.-.A.V.V.",
"V.Z.Z.B.P K { I h x M ' ' ' ' ' ' K L g.e.f ; ( g.g.L K ' / ' K I [ I ' F x r ' ' ' I h h N [ ' ' N K L f.B.P L 8.v.4.I { Z.d.Z.",
"Z.N.,.,.-.=.I I n M M M F ' ' F ` ' { O.$.q > g -.-.L I / / ' I I [ F M M p p ' ' ' F n M M M M ` ` ' { 5.8.L I 1.5.=.{ U 8.,.G.",
"A.p.! Q g.l.U { ' I n r n I [ [ ' ' I j f > > e h l L { ' ` [ I I I F x x r x [ [ { [ I ' n h N ` ' K K { U L U K I K I K U Q l.",
"Z.<.R J B.f.I I [ [ m h S I I [ [ F I h f 7 7 7 j l I I ' ' I I I I n r x x n F I K K [ I x h M ' [ I I I K U L I K I { L U U d.",
"B.d.Q J X.K K { I K n r x h x F [ x S r u 7 = 7 x h k r ' ` l k m n h r n F ' [ [ j j ' ' K ' F ' K n j h j I K K ' C K K L K X.",
"Z.8.J L L L { K [ I n x x r n [ [ p t r u 7 7 e u r p x [ [ k t r r r r M ` ` ' I h x I K [ { K [ ' x r x x I ' ' ] ' C ' { L K ",
"L -.g.l.{ K I ' h r t p t t t p p u r u u * * 7 u p p r r x r t p n p p i p p p M r h n h M F F r x r p p p p r F ' K K ' ' ' K ",
"I =.f.v.I ' F [ x p p p p p p t t M u u 0 < < 3 e u u p r p p p t p p p i i p p p n r r r F [ F p x p t p p p x F ' ' ' ' K ' ' ",
"r m I [ x r x p p p p p p p p p p p u 7 ; & ; & * 7 u p x n r p p p p p p t t p p p p p p p p p p p p p p p x x h h m { K K ' d ",
"e v / / u 9 p u p p p u u u u u u u 0 < @ X @ X ; < e u u u e x u p u u u p p p p p u u u u u u u u u u u u u u e x v N ( ( ( f ",
"< < 0 0 < < 0 < < < < < < < < < 7 3 3 & X . . X X & < < ; > ; 1 < < < < < 3 < * < < < < < < < < * * * * * < < < * 0 < < 0 3 3 < ",
"; % > ; > ; 1 ; > > > > > > > > ; > ; ; @ @ @ ; < ; ; ; > ; > ; ; ; ; > ; > ; ; ; ; > > ; ; ; ; ; ; ; ; ; ; > ; ; * * < * % % % ",
"c c ] Z ) ) ) ) ) ) ) ) ) ) ) ) ) ) ) ) ( ( ( ( ' ' ' ] ' ( ] ) _ ) Z Z Z Z ) +.) ) ] ) ] ) ] ] ) ] ] ] ] ] { ] { C ] ] ' ( ] c ",
"J X.g.B.B.B.g.B.g.B.B.B.B.B.B.g.B.g.B.g.g.l.l.l.g.l.g.g.g.f.g.g.B.B.B.B.B.B.B.B.B.B.B.B.B.B.B.B.B.B.B.B.B.g.g.g.g.g.B.B.g.B.g.L ",
"! ;.g.B.B.A.s.f.Z.Z.Z.Z.Z.Z.Z.Z.B.B.N.V.V.F.D.G.F.A.p.p.Z.Z.N.Z.Z.Z.N.d.N.A.F.N.Z.Z.Z.Z.Z.Z.D.Z.A.A.A.Z.Z.Z.Z.Z.Z.Z.Z.Z.N.Z.N.^ ",
"Z.j.Z.Z.j.Z.! Q Z.Z.V.V.V.V.V.V.A.N.C.V.D.D.D.D.V.d.! ! N.A.V.V.Z.l.:.Q &.h.G.Z.V.V.V.D.D.D.D.V.V.V.V.V.V.V.V.V.V.Z.V.Z.H.V.A.A.",
"Z.l.l.G.j.l.Q J Z.d.Z.A.Z.Z.G.l.B.Z.Z.N.F.G.j.Z.g.g.E J Z.Z.Z.l.l.f.5.L &.l.l.l.Z.j.Z.G.V.V.D.V.V.Z.Z.A.Z.Z.Z.Z.A.N.Z.A.V.A.V.H.",
"Z.G.Z.d.G.Z.d.l.P U d.l.j.G.l.Z.B.Q J P ~ s.l.5.L L L C L P l.P.{ I I I I U { g.l.Z.Z.Z.Z.F.Z.V.Z.g.L L L J l.l.j.A.,.P ! A.Z.V.",
"D.F.F.j.V.j.j.G.P Q i.G.G.G.G.z.l.U U | | s.n.4.L C { K K U k.x.{ K { { I H L g.l.Z.Z.N.N.V.V.H.Z.l.U U U U l.l.l.Z.,.Q ^ V.V.H.",
"D.V.F.F.Q Q U P Z.Z.P l ~ j.z.z l H U I I [ { K ' ' C ' ' { l k I K ' K L L K X.J B.g.J R d.N.,.L { I U U L U U U L ,.A.N.Z.V.V.",
"F.Z.Z.Z.J L L L f.l.H h U l.m.l k I I I [ I K ' C ' ' K { { r h C ' ' C ' ] C C L b.g.L L 8.g.8.I I ' I ' { K ' I K =.n.g.B.l.B.",
"Z.s.X.L L L { ' { ' m m m k k h x h n ' ' x x n x x ' N I K ' { ' ( C ' C x x ] K { { K K { L { ' K x x F ' ' ' ' { K { { U X.n.",
"Z.s.{ L U I ' N F F M r r p n n x r x [ ' x r r x r [ [ [ F [ F ' ' I { I h h I I [ [ I [ [ [ I I I h x K ' ' ' K ' K L { K K f.",
";.:.-.5.I I ' ' n N p p p r n t r x r n D p p p n t A n n n M m I [ F m n h n M S n n S n n A m m m h h m N N ' ' ' I I I U L -."
};
